<mxfile host="app.diagrams.net" agent="Mozilla/5.0 (Macintosh; Intel Mac OS X 10_15_7) AppleWebKit/537.36 (KHTML, like Gecko) Chrome/131.0.0.0 Safari/537.36" version="24.9.3">
  <diagram name="Page-1" id="fq3a_ICVDs4XvFBABa_B">
    <mxGraphModel dx="1434" dy="761" grid="1" gridSize="10" guides="1" tooltips="1" connect="1" arrows="1" fold="1" page="1" pageScale="1" pageWidth="850" pageHeight="1100" math="0" shadow="0">
      <root>
        <mxCell id="0" />
        <mxCell id="1" parent="0" />
        <mxCell id="Pk3tELJ0T-pKpHjCAhUB-1" value="Assignment 3 | CS 6310 FALL 2024&lt;div&gt;Activity Diagram Robustness&amp;nbsp;&lt;/div&gt;&lt;div&gt;Group 55&lt;/div&gt;" style="rounded=1;whiteSpace=wrap;html=1;fillColor=#f5f5f5;fontColor=#333333;strokeColor=#666666;labelBackgroundColor=default;" vertex="1" parent="1">
          <mxGeometry x="305" y="30" width="240" height="70" as="geometry" />
        </mxCell>
        <mxCell id="Pk3tELJ0T-pKpHjCAhUB-2" value="" style="ellipse;html=1;shape=startState;fillColor=#000000;strokeColor=#ff0000;" vertex="1" parent="1">
          <mxGeometry x="308" y="160" width="30" height="30" as="geometry" />
        </mxCell>
        <mxCell id="Pk3tELJ0T-pKpHjCAhUB-3" value="" style="edgeStyle=orthogonalEdgeStyle;html=1;verticalAlign=bottom;endArrow=open;endSize=8;strokeColor=#ff0000;rounded=0;" edge="1" source="Pk3tELJ0T-pKpHjCAhUB-2" parent="1" target="Pk3tELJ0T-pKpHjCAhUB-4">
          <mxGeometry relative="1" as="geometry">
            <mxPoint x="323" y="250" as="targetPoint" />
          </mxGeometry>
        </mxCell>
        <mxCell id="Pk3tELJ0T-pKpHjCAhUB-4" value="Get Pokemons" style="rounded=1;whiteSpace=wrap;html=1;arcSize=40;fontColor=#000000;fillColor=#ffffc0;strokeColor=#ff0000;" vertex="1" parent="1">
          <mxGeometry x="263" y="240" width="120" height="40" as="geometry" />
        </mxCell>
        <mxCell id="Pk3tELJ0T-pKpHjCAhUB-5" value="" style="edgeStyle=orthogonalEdgeStyle;html=1;verticalAlign=bottom;endArrow=open;endSize=8;strokeColor=#ff0000;rounded=0;" edge="1" source="Pk3tELJ0T-pKpHjCAhUB-4" parent="1" target="Pk3tELJ0T-pKpHjCAhUB-6">
          <mxGeometry relative="1" as="geometry">
            <mxPoint x="323" y="340" as="targetPoint" />
          </mxGeometry>
        </mxCell>
        <mxCell id="Pk3tELJ0T-pKpHjCAhUB-6" value="DB operation" style="rhombus;whiteSpace=wrap;html=1;fontColor=#000000;fillColor=#ffffc0;strokeColor=#ff0000;" vertex="1" parent="1">
          <mxGeometry x="266" y="360" width="115" height="70" as="geometry" />
        </mxCell>
        <mxCell id="Pk3tELJ0T-pKpHjCAhUB-7" value="no" style="edgeStyle=orthogonalEdgeStyle;html=1;align=left;verticalAlign=bottom;endArrow=open;endSize=8;strokeColor=#ff0000;rounded=0;" edge="1" source="Pk3tELJ0T-pKpHjCAhUB-6" parent="1" target="Pk3tELJ0T-pKpHjCAhUB-20">
          <mxGeometry x="-1" relative="1" as="geometry">
            <mxPoint x="468" y="395" as="targetPoint" />
          </mxGeometry>
        </mxCell>
        <mxCell id="Pk3tELJ0T-pKpHjCAhUB-8" value="yes" style="edgeStyle=orthogonalEdgeStyle;html=1;align=left;verticalAlign=top;endArrow=open;endSize=8;strokeColor=#ff0000;rounded=0;" edge="1" source="Pk3tELJ0T-pKpHjCAhUB-6" parent="1" target="Pk3tELJ0T-pKpHjCAhUB-10">
          <mxGeometry x="-1" relative="1" as="geometry">
            <mxPoint x="328" y="450" as="targetPoint" />
          </mxGeometry>
        </mxCell>
        <mxCell id="Pk3tELJ0T-pKpHjCAhUB-10" value="Display List of pokemons" style="rounded=1;whiteSpace=wrap;html=1;arcSize=40;fontColor=#000000;fillColor=#ffffc0;strokeColor=#ff0000;" vertex="1" parent="1">
          <mxGeometry x="263.5" y="490" width="120" height="40" as="geometry" />
        </mxCell>
        <mxCell id="Pk3tELJ0T-pKpHjCAhUB-11" value="" style="edgeStyle=orthogonalEdgeStyle;html=1;verticalAlign=bottom;endArrow=open;endSize=8;strokeColor=#ff0000;rounded=0;" edge="1" source="Pk3tELJ0T-pKpHjCAhUB-10" parent="1" target="Pk3tELJ0T-pKpHjCAhUB-25">
          <mxGeometry relative="1" as="geometry">
            <mxPoint x="324" y="590" as="targetPoint" />
          </mxGeometry>
        </mxCell>
        <mxCell id="Pk3tELJ0T-pKpHjCAhUB-13" value="" style="edgeStyle=orthogonalEdgeStyle;html=1;verticalAlign=bottom;endArrow=open;endSize=8;strokeColor=#ff0000;rounded=0;" edge="1" source="Pk3tELJ0T-pKpHjCAhUB-20" parent="1" target="Pk3tELJ0T-pKpHjCAhUB-6">
          <mxGeometry relative="1" as="geometry">
            <mxPoint x="508" y="270" as="targetPoint" />
            <mxPoint x="528" y="375" as="sourcePoint" />
            <Array as="points">
              <mxPoint x="528" y="300" />
              <mxPoint x="324" y="300" />
            </Array>
          </mxGeometry>
        </mxCell>
        <mxCell id="Pk3tELJ0T-pKpHjCAhUB-20" value="ReTry 3 times" style="rhombus;whiteSpace=wrap;html=1;fontColor=#000000;fillColor=#ffffc0;strokeColor=#ff0000;" vertex="1" parent="1">
          <mxGeometry x="488" y="375" width="80" height="40" as="geometry" />
        </mxCell>
        <mxCell id="Pk3tELJ0T-pKpHjCAhUB-21" value="All try Fails" style="edgeStyle=orthogonalEdgeStyle;html=1;align=left;verticalAlign=bottom;endArrow=open;endSize=8;strokeColor=#ff0000;rounded=0;" edge="1" source="Pk3tELJ0T-pKpHjCAhUB-20" parent="1" target="Pk3tELJ0T-pKpHjCAhUB-24">
          <mxGeometry x="-0.3407" y="10" relative="1" as="geometry">
            <mxPoint x="528" y="460" as="targetPoint" />
            <mxPoint as="offset" />
          </mxGeometry>
        </mxCell>
        <mxCell id="Pk3tELJ0T-pKpHjCAhUB-24" value="Handle Error" style="rounded=1;whiteSpace=wrap;html=1;arcSize=40;fontColor=#000000;fillColor=#ffffc0;strokeColor=#ff0000;" vertex="1" parent="1">
          <mxGeometry x="468" y="490" width="120" height="40" as="geometry" />
        </mxCell>
        <mxCell id="Pk3tELJ0T-pKpHjCAhUB-25" value="" style="ellipse;html=1;shape=endState;fillColor=#000000;strokeColor=#ff0000;" vertex="1" parent="1">
          <mxGeometry x="308.5" y="610" width="30" height="30" as="geometry" />
        </mxCell>
        <mxCell id="Pk3tELJ0T-pKpHjCAhUB-26" value="" style="edgeStyle=orthogonalEdgeStyle;html=1;verticalAlign=bottom;endArrow=open;endSize=8;strokeColor=#ff0000;rounded=0;" edge="1" parent="1" source="Pk3tELJ0T-pKpHjCAhUB-24" target="Pk3tELJ0T-pKpHjCAhUB-25">
          <mxGeometry relative="1" as="geometry">
            <mxPoint x="488" y="640" as="targetPoint" />
            <mxPoint x="334" y="540" as="sourcePoint" />
            <Array as="points">
              <mxPoint x="528" y="625" />
            </Array>
          </mxGeometry>
        </mxCell>
      </root>
    </mxGraphModel>
  </diagram>
</mxfile>
